# xmcd CD database file
# Copyright (C) 1993-1998 Ti Kan
#
# Track frame offsets:
#  187
#  17555
#  25452
#
# Disc length: 408 seconds
#
# Revision: 1
# Processed by: cddbd v1.4b41PL1 Copyright (c) Steve Scherf et al.
# Submitted via: CDWizzard Release:4.35
#
DISCID=1a019603
DTITLE=Black Flag - TV Party
DYEAR=1900
DGENRE=
TTITLE0=TV Party
TTITLE1=I've Got To Run
TTITLE2=My Rules
EXTD=
EXTT0=
EXTT1=
EXTT2=
PLAYORDER=
